<svg width="46" height="46" viewBox="0 0 46 46" fill="none" xmlns="http://www.w3.org/2000/svg">
<g clip-path="url(#clip0_1_151)">
<g filter="url(#filter0_i_1_151)">
<path d="M43.4861 12.765C43.5417 12.4504 43.5707 12.1267 43.5707 11.7963C43.5707 8.70566 41.0329 6.2002 37.9024 6.2002C35.5752 6.2002 33.5755 7.58488 32.7025 9.56529C31.9953 8.96248 31.0777 8.59853 30.0748 8.59853C27.8388 8.59853 26.0261 10.408 26.0261 12.6402C26.0261 12.7645 26.0317 12.8875 26.0427 13.0089C24.9672 13.529 24.2266 14.6203 24.2266 15.8824C24.2266 17.6484 25.6768 19.0801 27.4656 19.0801H42.7609C44.5498 19.0801 45.9999 17.6484 45.9999 15.8824C45.9999 14.3624 44.9258 13.0901 43.4861 12.765Z" fill="url(#paint0_linear_1_151)"/>
</g>
<g opacity="0.3" filter="url(#filter1_f_1_151)">
<rect x="6" y="5" width="34" height="34" rx="17" fill="#EDD34A"/>
</g>
<g filter="url(#filter2_i_1_151)">
<path d="M36.9018 19.9033C36.9018 28.6091 29.8436 35.6666 21.1368 35.6666C12.4301 35.6666 5.37183 28.6091 5.37183 19.9033C5.37183 11.1976 12.4301 4.14014 21.1368 4.14014C29.8436 4.14014 36.9018 11.1976 36.9018 19.9033Z" fill="url(#paint1_linear_1_151)"/>
</g>
<g filter="url(#filter3_bi_1_151)">
<path d="M19.2595 35.4584C19.3151 35.1437 19.3441 34.82 19.3441 34.4897C19.3441 31.399 16.8064 28.8936 13.6759 28.8936C11.3486 28.8936 9.34893 30.2782 8.47598 32.2586C7.76878 31.6558 6.85111 31.2919 5.84828 31.2919C3.61221 31.2919 1.79952 33.1014 1.79952 35.3335C1.79952 35.4578 1.80514 35.5808 1.81614 35.7022C0.740635 36.2223 7.24792e-05 37.3136 7.24792e-05 38.5757C7.24792e-05 40.3418 1.45023 41.7735 3.23908 41.7735H18.5344C20.3232 41.7735 21.7734 40.3418 21.7734 38.5757C21.7734 37.0558 20.6992 35.7835 19.2595 35.4584Z" fill="url(#paint2_linear_1_151)"/>
</g>
</g>
<defs>
<filter id="filter0_i_1_151" x="24.2266" y="6.2002" width="21.7733" height="16.8799" filterUnits="userSpaceOnUse" color-interpolation-filters="sRGB">
<feFlood flood-opacity="0" result="BackgroundImageFix"/>
<feBlend mode="normal" in="SourceGraphic" in2="BackgroundImageFix" result="shape"/>
<feColorMatrix in="SourceAlpha" type="matrix" values="0 0 0 0 0 0 0 0 0 0 0 0 0 0 0 0 0 0 127 0" result="hardAlpha"/>
<feOffset dy="4.39983"/>
<feGaussianBlur stdDeviation="1.99992"/>
<feComposite in2="hardAlpha" operator="arithmetic" k2="-1" k3="1"/>
<feColorMatrix type="matrix" values="0 0 0 0 1 0 0 0 0 1 0 0 0 0 1 0 0 0 1 0"/>
<feBlend mode="normal" in2="shape" result="effect1_innerShadow_1_151"/>
</filter>
<filter id="filter1_f_1_151" x="-2" y="-3" width="50" height="50" filterUnits="userSpaceOnUse" color-interpolation-filters="sRGB">
<feFlood flood-opacity="0" result="BackgroundImageFix"/>
<feBlend mode="normal" in="SourceGraphic" in2="BackgroundImageFix" result="shape"/>
<feGaussianBlur stdDeviation="4" result="effect1_foregroundBlur_1_151"/>
</filter>
<filter id="filter2_i_1_151" x="5.37183" y="4.14014" width="31.53" height="33.5263" filterUnits="userSpaceOnUse" color-interpolation-filters="sRGB">
<feFlood flood-opacity="0" result="BackgroundImageFix"/>
<feBlend mode="normal" in="SourceGraphic" in2="BackgroundImageFix" result="shape"/>
<feColorMatrix in="SourceAlpha" type="matrix" values="0 0 0 0 0 0 0 0 0 0 0 0 0 0 0 0 0 0 127 0" result="hardAlpha"/>
<feOffset dy="1.99992"/>
<feGaussianBlur stdDeviation="3.59986"/>
<feComposite in2="hardAlpha" operator="arithmetic" k2="-1" k3="1"/>
<feColorMatrix type="matrix" values="0 0 0 0 1 0 0 0 0 1 0 0 0 0 1 0 0 0 0.81 0"/>
<feBlend mode="normal" in2="shape" result="effect1_innerShadow_1_151"/>
</filter>
<filter id="filter3_bi_1_151" x="-7.99994" y="20.8936" width="37.7733" height="28.88" filterUnits="userSpaceOnUse" color-interpolation-filters="sRGB">
<feFlood flood-opacity="0" result="BackgroundImageFix"/>
<feGaussianBlur in="BackgroundImageFix" stdDeviation="4"/>
<feComposite in2="SourceAlpha" operator="in" result="effect1_backgroundBlur_1_151"/>
<feBlend mode="normal" in="SourceGraphic" in2="effect1_backgroundBlur_1_151" result="shape"/>
<feColorMatrix in="SourceAlpha" type="matrix" values="0 0 0 0 0 0 0 0 0 0 0 0 0 0 0 0 0 0 127 0" result="hardAlpha"/>
<feOffset dy="4.39983"/>
<feGaussianBlur stdDeviation="1.99992"/>
<feComposite in2="hardAlpha" operator="arithmetic" k2="-1" k3="1"/>
<feColorMatrix type="matrix" values="0 0 0 0 1 0 0 0 0 1 0 0 0 0 1 0 0 0 1 0"/>
<feBlend mode="normal" in2="shape" result="effect2_innerShadow_1_151"/>
</filter>
<linearGradient id="paint0_linear_1_151" x1="25.6115" y1="17.9301" x2="47.5215" y2="1.48769" gradientUnits="userSpaceOnUse">
<stop stop-color="white"/>
<stop offset="1" stop-color="white" stop-opacity="0.58"/>
</linearGradient>
<linearGradient id="paint1_linear_1_151" x1="18.7421" y1="28.4833" x2="31.7111" y2="5.73514" gradientUnits="userSpaceOnUse">
<stop stop-color="#FF9900"/>
<stop offset="1" stop-color="#FFEE94"/>
</linearGradient>
<linearGradient id="paint2_linear_1_151" x1="1.38495" y1="40.6235" x2="23.2949" y2="24.181" gradientUnits="userSpaceOnUse">
<stop stop-color="white"/>
<stop offset="1" stop-color="white" stop-opacity="0.58"/>
</linearGradient>
<clipPath id="clip0_1_151">
<rect width="46" height="45.9999" fill="white"/>
</clipPath>
</defs>
</svg>
