<svg width="24" height="24" viewBox="0 0 24 24" fill="none" xmlns="http://www.w3.org/2000/svg">
<path fill-rule="evenodd" clip-rule="evenodd" d="M14.8776 18.1234C15.2237 18.351 15.3198 18.816 15.0922 19.1621L12.6266 22.9121C12.399 23.2582 11.934 23.3543 11.5879 23.1268C11.2418 22.8992 11.1457 22.4342 11.3732 22.088L13.8389 18.338C14.0664 17.9919 14.5315 17.8958 14.8776 18.1234Z" fill="white"/>
<path fill-rule="evenodd" clip-rule="evenodd" d="M12.628 14.3735C12.974 14.6013 13.0698 15.0664 12.842 15.4124L9.87951 19.9124C9.65175 20.2583 9.18664 20.3542 8.84067 20.1264C8.4947 19.8986 8.39887 19.4335 8.62664 19.0876L11.5891 14.5876C11.8169 14.2416 12.282 14.1458 12.628 14.3735Z" fill="white"/>
<path fill-rule="evenodd" clip-rule="evenodd" d="M15.7223 3.10809C14.6311 2.89105 13.5001 3.00244 12.4723 3.42818C11.4445 3.85393 10.566 4.5749 9.94787 5.49993C9.32979 6.42495 8.99989 7.51249 8.99989 8.62501C8.99989 9.03923 8.6641 9.37501 8.24989 9.37501C7.83567 9.37501 7.49989 9.03923 7.49989 8.62501C7.49989 8.25678 7.52842 7.89071 7.58454 7.52991C7.43377 7.50925 7.28146 7.49922 7.12874 7.5L7.12488 7.50001C6.22978 7.50001 5.37133 7.85559 4.7384 8.48853C4.10546 9.12146 3.74988 9.97991 3.74988 10.875C3.74988 11.7701 4.10546 12.6286 4.7384 13.2615C5.37133 13.8944 6.22978 14.25 7.12488 14.25H14.6249C15.7374 14.25 16.825 13.9201 17.75 13.302C18.675 12.684 19.396 11.8054 19.8217 10.7776C20.2475 9.74977 20.3589 8.61877 20.1418 7.52763C19.9248 6.43648 19.389 5.4342 18.6024 4.64753C17.8157 3.86086 16.8134 3.32513 15.7223 3.10809ZM7.97268 6.0728C8.16138 5.58095 8.40499 5.10908 8.70067 4.66657C9.48357 3.49487 10.5963 2.58164 11.8983 2.04236C13.2002 1.50309 14.6328 1.36199 16.0149 1.63691C17.397 1.91183 18.6666 2.59042 19.663 3.58687C20.6595 4.58332 21.3381 5.85288 21.613 7.23499C21.8879 8.61711 21.7468 10.0497 21.2075 11.3516C20.6683 12.6536 19.755 13.7663 18.5833 14.5492C17.4116 15.3321 16.0341 15.75 14.6249 15.75H7.12488C5.83195 15.75 4.59198 15.2364 3.67773 14.3222C2.76349 13.4079 2.24988 12.1679 2.24988 10.875C2.24988 9.58208 2.76349 8.34211 3.67773 7.42787C4.59153 6.51407 5.83073 6.00051 7.12298 6.00001" fill="white"/>
</svg>
