<svg width="46" height="46" viewBox="0 0 46 46" fill="none" xmlns="http://www.w3.org/2000/svg">
<g clip-path="url(#clip0_1_232)">
<g opacity="0.3" filter="url(#filter0_f_1_232)">
<rect x="11" y="5" width="31" height="31" rx="15.5" fill="#EDD34A"/>
</g>
<g filter="url(#filter1_i_1_232)">
<path d="M43.6332 22.1291C43.6332 30.6503 36.7462 37.5581 28.2506 37.5581C19.755 37.5581 12.8679 30.6503 12.8679 22.1291C12.8679 13.6079 19.755 6.70007 28.2506 6.70007C36.7462 6.70007 43.6332 13.6079 43.6332 22.1291Z" fill="url(#paint0_linear_1_232)"/>
</g>
<g filter="url(#filter2_b_1_232)">
<g filter="url(#filter3_i_1_232)">
<path d="M37.0256 30.0852C37.1325 29.4763 37.1882 28.85 37.1882 28.2107C37.1882 22.23 32.3095 17.3817 26.2912 17.3817C21.8171 17.3817 17.9728 20.0612 16.2946 23.8935C14.935 22.727 13.1708 22.0227 11.2429 22.0227C6.9441 22.0227 3.45926 25.5242 3.45926 29.8436C3.45926 30.0841 3.47007 30.3221 3.49122 30.5571C1.42358 31.5635 -0.00012207 33.6753 -0.00012207 36.1175C-0.00012207 39.5351 2.78775 42.3055 6.22676 42.3055H35.6315C39.0705 42.3055 41.8584 39.5351 41.8584 36.1175C41.8584 33.1763 39.7934 30.7143 37.0256 30.0852Z" fill="url(#paint1_linear_1_232)"/>
</g>
</g>
</g>
<defs>
<filter id="filter0_f_1_232" x="3" y="-3" width="47" height="47" filterUnits="userSpaceOnUse" color-interpolation-filters="sRGB">
<feFlood flood-opacity="0" result="BackgroundImageFix"/>
<feBlend mode="normal" in="SourceGraphic" in2="BackgroundImageFix" result="shape"/>
<feGaussianBlur stdDeviation="4" result="effect1_foregroundBlur_1_232"/>
</filter>
<filter id="filter1_i_1_232" x="12.8679" y="6.70007" width="30.7653" height="33.6201" filterUnits="userSpaceOnUse" color-interpolation-filters="sRGB">
<feFlood flood-opacity="0" result="BackgroundImageFix"/>
<feBlend mode="normal" in="SourceGraphic" in2="BackgroundImageFix" result="shape"/>
<feColorMatrix in="SourceAlpha" type="matrix" values="0 0 0 0 0 0 0 0 0 0 0 0 0 0 0 0 0 0 127 0" result="hardAlpha"/>
<feOffset dy="2.76203"/>
<feGaussianBlur stdDeviation="4.97165"/>
<feComposite in2="hardAlpha" operator="arithmetic" k2="-1" k3="1"/>
<feColorMatrix type="matrix" values="0 0 0 0 1 0 0 0 0 1 0 0 0 0 1 0 0 0 0.81 0"/>
<feBlend mode="normal" in2="shape" result="effect1_innerShadow_1_232"/>
</filter>
<filter id="filter2_b_1_232" x="-14.9151" y="2.46678" width="71.6885" height="54.7537" filterUnits="userSpaceOnUse" color-interpolation-filters="sRGB">
<feFlood flood-opacity="0" result="BackgroundImageFix"/>
<feGaussianBlur in="BackgroundImageFix" stdDeviation="7.45747"/>
<feComposite in2="SourceAlpha" operator="in" result="effect1_backgroundBlur_1_232"/>
<feBlend mode="normal" in="SourceGraphic" in2="effect1_backgroundBlur_1_232" result="shape"/>
</filter>
<filter id="filter3_i_1_232" x="-0.00012207" y="17.3817" width="41.8585" height="30.4479" filterUnits="userSpaceOnUse" color-interpolation-filters="sRGB">
<feFlood flood-opacity="0" result="BackgroundImageFix"/>
<feBlend mode="normal" in="SourceGraphic" in2="BackgroundImageFix" result="shape"/>
<feColorMatrix in="SourceAlpha" type="matrix" values="0 0 0 0 0 0 0 0 0 0 0 0 0 0 0 0 0 0 127 0" result="hardAlpha"/>
<feOffset dy="6.07646"/>
<feGaussianBlur stdDeviation="2.76203"/>
<feComposite in2="hardAlpha" operator="arithmetic" k2="-1" k3="1"/>
<feColorMatrix type="matrix" values="0 0 0 0 1 0 0 0 0 1 0 0 0 0 1 0 0 0 1 0"/>
<feBlend mode="normal" in2="shape" result="effect1_innerShadow_1_232"/>
</filter>
<linearGradient id="paint0_linear_1_232" x1="25.914" y1="30.5272" x2="38.6282" y2="8.29545" gradientUnits="userSpaceOnUse">
<stop stop-color="#FF9900"/>
<stop offset="1" stop-color="#FFEE94"/>
</linearGradient>
<linearGradient id="paint1_linear_1_232" x1="2.66226" y1="40.0802" x2="44.9817" y2="8.52839" gradientUnits="userSpaceOnUse">
<stop stop-color="white"/>
<stop offset="1" stop-color="white" stop-opacity="0.58"/>
</linearGradient>
<clipPath id="clip0_1_232">
<rect width="46" height="45.9999" fill="white"/>
</clipPath>
</defs>
</svg>
