<svg width="46" height="46" viewBox="0 0 46 46" fill="none" xmlns="http://www.w3.org/2000/svg">
<g clip-path="url(#clip0_1_188)">
<g clip-path="url(#clip1_1_188)">
<g filter="url(#filter0_f_1_188)">
<rect x="10.9355" y="27.6" width="24.38" height="3.44999" rx="1.725" fill="#00BCFF"/>
</g>
<g filter="url(#filter1_bi_1_188)">
<path d="M38.4052 16.7743C38.5158 16.1467 38.5734 15.5011 38.5734 14.8421C38.5734 8.67748 33.5294 3.68005 27.3073 3.68005C22.6817 3.68005 18.7071 6.44197 16.9721 10.3921C15.5665 9.18974 13.7425 8.4638 11.7493 8.4638C7.30494 8.4638 3.70206 12.0731 3.70206 16.5253C3.70206 16.7732 3.71324 17.0185 3.73511 17.2607C1.59745 18.2981 0.125519 20.4749 0.125519 22.9922C0.125519 26.5149 3.00782 29.3705 6.5633 29.3705H36.964C40.5194 29.3705 43.4017 26.5149 43.4017 22.9922C43.4017 19.9605 41.2668 17.4228 38.4052 16.7743Z" fill="url(#paint0_linear_1_188)"/>
</g>
<path d="M36.3205 20.9986V18.6955L35.1013 19.4189L34.5047 19.0434V18.2339L36.3205 17.1495V15.6359L34.8678 16.526V14.9223L33.4152 15.6828V17.8581L32.8149 18.3047L32.3257 17.9013V16.4443L30.3015 17.5781L29.4205 17.2153V16.2969L31.485 15.1456L30.1468 14.484V13.6414L30.9178 13.2322L32.8113 14.3463L34.123 13.5895L34.0932 13.5659L32.7622 12.7949L34.058 11.9858L32.759 11.2294L30.8658 12.3377L30.1468 11.9858V11.148L31.4331 10.4297L29.4205 9.32097V8.40255L30.2634 7.99799L32.3257 9.159V7.67878L32.865 7.2695L33.5706 7.69802L33.5503 9.9151L34.8842 10.6857L34.8962 9.12015L36.3205 9.88241V8.36914L34.5047 7.28403V6.48L35.1013 6.09868L36.3205 6.82209V4.52403L37.0446 4.04321L37.7731 4.52403V6.82209L39.1916 6.08452L39.9521 6.52721V7.25061L37.7731 8.36914V9.88241L39.2257 9.05914V10.7057L40.6784 9.94887V7.57963L41.2068 7.26514L41.7678 7.57927V9.09255L43.8894 7.97402L44.6731 8.41635V9.27304L42.6776 10.4242L43.9468 11.1339V11.9524L43.2822 12.3141L41.3477 11.1673L40.0116 12.0192L41.3005 12.8283L39.9717 13.599L41.3415 14.3224L43.2986 13.238L43.9468 13.6796V14.4604L42.7411 15.1456L44.6731 16.2969V17.2011L43.7572 17.5777L41.7678 16.4926V17.9289L41.2158 18.3098L40.6784 17.9289V15.7492L39.2257 14.9455V16.4592L37.7731 15.6355V17.1492L39.5889 18.2336V19.0903L38.9908 19.4186L37.7731 18.6959V20.999L37.0446 21.4747L36.3205 20.9986ZM35.7881 12.7924L36.473 13.8484H37.7491L38.3349 12.7924L37.7161 11.6695H36.44L35.7881 12.7924Z" fill="#9FE8FF"/>
<path d="M10.639 36.7036V35.9742L10.2529 36.2033L10.064 36.0844V35.8281L10.639 35.4847V35.0054L10.179 35.2872V34.7794L9.71898 35.0202V35.7091L9.52888 35.8505L9.37398 35.7227V35.2614L8.73297 35.6204L8.45398 35.5055V35.2147L9.10775 34.8501L8.68398 34.6406V34.3738L8.92812 34.2442L9.52773 34.597L9.94311 34.3573L9.93368 34.3499L9.51221 34.1057L9.92253 33.8495L9.51117 33.61L8.91168 33.9609L8.68398 33.8495V33.5842L9.09131 33.3567L8.45398 33.0056V32.7148L8.72089 32.5867L9.37398 32.9544V32.4856L9.54475 32.356L9.7682 32.4917L9.76176 33.1938L10.1842 33.4378L10.1879 32.942L10.639 33.1834V32.7042L10.064 32.3606V32.106L10.2529 31.9852L10.639 32.2143V31.4866L10.8683 31.3344L11.099 31.4866V32.2143L11.5482 31.9808L11.789 32.1209V32.35L11.099 32.7042V33.1834L11.559 32.9227V33.4441L12.019 33.2045V32.4542L12.1863 32.3546L12.364 32.4541V32.9333L13.0358 32.5791L13.284 32.7192V32.9905L12.6521 33.355L13.054 33.5797V33.8389L12.8435 33.9535L12.2309 33.5903L11.8078 33.8601L12.216 34.1163L11.7952 34.3603L12.229 34.5894L12.8487 34.246L13.054 34.3859V34.6331L12.6722 34.8501L13.284 35.2147V35.501L12.9939 35.6203L12.364 35.2767V35.7315L12.1892 35.8521L12.019 35.7315V35.0413L11.559 34.7868V35.2661L11.099 35.0053V35.4846L11.674 35.828V36.0992L11.4846 36.2032L11.099 35.9744V36.7037L10.8683 36.8543L10.639 36.7036ZM10.4704 34.1049L10.6873 34.4393H11.0914L11.2769 34.1049L11.0809 33.7493H10.6768L10.4704 34.1049Z" fill="#9FE8FF"/>
<path d="M21.2733 41.7224V40.6476L20.7044 40.9851L20.426 40.8099V40.4322L21.2733 39.9261V39.2197L20.5954 39.6351V38.8867L19.9176 39.2416V40.2567L19.6374 40.4652L19.4091 40.2769V39.597L18.4645 40.1261L18.0533 39.9568V39.5282L19.0168 38.991L18.3923 38.6822V38.289L18.7521 38.098L19.6357 38.6179L20.2479 38.2648L20.234 38.2537L19.6128 37.8939L20.2175 37.5164L19.6113 37.1634L18.7278 37.6806L18.3923 37.5164V37.1254L18.9926 36.7902L18.0533 36.2728V35.8442L18.4467 35.6554L19.4091 36.1972V35.5064L19.6608 35.3154L19.9901 35.5154L19.9806 36.55L20.6031 36.9096L20.6087 36.1791L21.2733 36.5348V35.8286L20.426 35.3222V34.947L20.7044 34.769L21.2733 35.1066V34.0342L21.6113 33.8098L21.9512 34.0342V35.1066L22.6132 34.7624L22.9681 34.969V35.3066L21.9512 35.8286V36.5348L22.6291 36.1506V36.919L23.307 36.5658V35.4601L23.5536 35.3134L23.8154 35.46V36.1662L24.8055 35.6442L25.1712 35.8506V36.2504L24.24 36.7876L24.8323 37.1188V37.5008L24.5222 37.6696L23.6194 37.1344L22.9959 37.532L23.5973 37.9095L22.9772 38.2692L23.6165 38.6068L24.5298 38.1007L24.8323 38.3068V38.6712L24.2696 38.991L25.1712 39.5282V39.9502L24.7438 40.1259L23.8154 39.6195V40.2898L23.5578 40.4676L23.307 40.2898V39.2726L22.6291 38.8976V39.6039L21.9512 39.2196V39.9259L22.7986 40.432V40.8318L22.5195 40.985L21.9512 40.6477V41.7225L21.6113 41.9445L21.2733 41.7224ZM21.0249 37.8928L21.3445 38.3856H21.9401L22.2134 37.8928L21.9246 37.3688H21.3291L21.0249 37.8928Z" fill="#9FE8FF"/>
<path d="M32.1499 36.1263V35.4737L31.8045 35.6787L31.6355 35.5723V35.343L32.1499 35.0357V34.6069L31.7384 34.8591V34.4047L31.3268 34.6201V35.2365L31.1567 35.363L31.0181 35.2487V34.8359L30.4446 35.1571L30.1949 35.0544V34.7941L30.7799 34.468L30.4007 34.2805V34.0418L30.6192 33.9258L31.1557 34.2415L31.5273 34.0271L31.5189 34.0204L31.1418 33.8019L31.5089 33.5727L31.1409 33.3583L30.6045 33.6724L30.4007 33.5727V33.3353L30.7652 33.1318L30.1949 32.8176V32.5574L30.4338 32.4428L31.0181 32.7717V32.3523L31.1709 32.2364L31.3708 32.3578L31.3651 32.986L31.743 33.2043L31.7464 32.7607L32.1499 32.9767V32.5479L31.6355 32.2405V32.0127L31.8045 31.9046L32.1499 32.1096V31.4585L32.3551 31.3223L32.5615 31.4585V32.1096L32.9634 31.9006L33.1789 32.0261V32.231L32.5615 32.5479V32.9767L32.9731 32.7434V33.21L33.3847 32.9955V32.3243L33.5344 32.2351L33.6934 32.3241V32.7529L34.2945 32.436L34.5165 32.5613V32.804L33.9511 33.1302L34.3107 33.3313V33.5632L34.1224 33.6657L33.5743 33.3407L33.1958 33.5821L33.5609 33.8114L33.1845 34.0297L33.5726 34.2347L34.1271 33.9275L34.3107 34.0526V34.2738L33.9691 34.468L34.5165 34.7941V35.0503L34.257 35.157L33.6934 34.8496V35.2565L33.537 35.3645L33.3847 35.2565V34.639L32.9731 34.4113V34.8401L32.5615 34.6068V35.0356L33.076 35.3429V35.5856L32.9065 35.6786L32.5615 35.4739V36.1264L32.3551 36.2612L32.1499 36.1263ZM31.9991 33.8012L32.1932 34.1004H32.5547L32.7207 33.8012L32.5454 33.483H32.1838L31.9991 33.8012Z" fill="#9FE8FF"/>
</g>
</g>
<defs>
<filter id="filter0_f_1_188" x="-6.85116" y="9.81333" width="59.9533" height="39.0232" filterUnits="userSpaceOnUse" color-interpolation-filters="sRGB">
<feFlood flood-opacity="0" result="BackgroundImageFix"/>
<feBlend mode="normal" in="SourceGraphic" in2="BackgroundImageFix" result="shape"/>
<feGaussianBlur stdDeviation="8.89332" result="effect1_foregroundBlur_1_188"/>
</filter>
<filter id="filter1_bi_1_188" x="-7.87451" y="-4.31995" width="59.2762" height="41.6904" filterUnits="userSpaceOnUse" color-interpolation-filters="sRGB">
<feFlood flood-opacity="0" result="BackgroundImageFix"/>
<feGaussianBlur in="BackgroundImageFix" stdDeviation="4"/>
<feComposite in2="SourceAlpha" operator="in" result="effect1_backgroundBlur_1_188"/>
<feBlend mode="normal" in="SourceGraphic" in2="effect1_backgroundBlur_1_188" result="shape"/>
<feColorMatrix in="SourceAlpha" type="matrix" values="0 0 0 0 0 0 0 0 0 0 0 0 0 0 0 0 0 0 127 0" result="hardAlpha"/>
<feOffset dy="4.60759"/>
<feGaussianBlur stdDeviation="2.09436"/>
<feComposite in2="hardAlpha" operator="arithmetic" k2="-1" k3="1"/>
<feColorMatrix type="matrix" values="0 0 0 0 1 0 0 0 0 1 0 0 0 0 1 0 0 0 1 0"/>
<feBlend mode="normal" in2="shape" result="effect2_innerShadow_1_188"/>
</filter>
<linearGradient id="paint0_linear_1_188" x1="2.87807" y1="27.0767" x2="46.5366" y2="-5.57158" gradientUnits="userSpaceOnUse">
<stop stop-color="white"/>
<stop offset="1" stop-color="white" stop-opacity="0.58"/>
</linearGradient>
<clipPath id="clip0_1_188">
<rect width="46" height="45.9999" fill="white"/>
</clipPath>
<clipPath id="clip1_1_188">
<rect width="46" height="45.9999" fill="white" transform="translate(0.125488)"/>
</clipPath>
</defs>
</svg>
