<svg width="46" height="46" viewBox="0 0 46 46" fill="none" xmlns="http://www.w3.org/2000/svg">
<g clip-path="url(#clip0_1_162)">
<g clip-path="url(#clip1_1_162)">
<g filter="url(#filter0_f_1_162)">
<rect x="10.6709" y="27.9216" width="24.38" height="3.44999" rx="1.725" fill="#00BCFF"/>
</g>
<g filter="url(#filter1_bi_1_162)">
<path d="M40.1658 23.2971C40.2807 22.7137 40.3407 22.1137 40.3407 21.5012C40.3407 15.7716 35.0957 11.1268 28.6258 11.1268C23.8159 11.1268 19.6831 13.6938 17.8789 17.3652C16.4173 16.2477 14.5207 15.573 12.4481 15.573C7.82674 15.573 4.08036 18.9275 4.08036 23.0656C4.08036 23.296 4.09198 23.524 4.11472 23.7491C1.89191 24.7133 0.361351 26.7365 0.361351 29.0762C0.361351 32.3502 3.35846 35.0044 7.05556 35.0044H38.6671C42.3642 35.0044 45.3613 32.3502 45.3613 29.0762C45.3613 26.2584 43.1414 23.8997 40.1658 23.2971Z" fill="url(#paint0_linear_1_162)"/>
</g>
</g>
</g>
<defs>
<filter id="filter0_f_1_162" x="-7.11574" y="10.135" width="59.9533" height="39.0232" filterUnits="userSpaceOnUse" color-interpolation-filters="sRGB">
<feFlood flood-opacity="0" result="BackgroundImageFix"/>
<feBlend mode="normal" in="SourceGraphic" in2="BackgroundImageFix" result="shape"/>
<feGaussianBlur stdDeviation="8.89332" result="effect1_foregroundBlur_1_162"/>
</filter>
<filter id="filter1_bi_1_162" x="-7.63867" y="3.12683" width="61" height="39.8776" filterUnits="userSpaceOnUse" color-interpolation-filters="sRGB">
<feFlood flood-opacity="0" result="BackgroundImageFix"/>
<feGaussianBlur in="BackgroundImageFix" stdDeviation="4"/>
<feComposite in2="SourceAlpha" operator="in" result="effect1_backgroundBlur_1_162"/>
<feBlend mode="normal" in="SourceGraphic" in2="effect1_backgroundBlur_1_162" result="shape"/>
<feColorMatrix in="SourceAlpha" type="matrix" values="0 0 0 0 0 0 0 0 0 0 0 0 0 0 0 0 0 0 127 0" result="hardAlpha"/>
<feOffset dy="8.77678"/>
<feGaussianBlur stdDeviation="3.98945"/>
<feComposite in2="hardAlpha" operator="arithmetic" k2="-1" k3="1"/>
<feColorMatrix type="matrix" values="0 0 0 0 1 0 0 0 0 1 0 0 0 0 1 0 0 0 1 0"/>
<feBlend mode="normal" in2="shape" result="effect2_innerShadow_1_162"/>
</filter>
<linearGradient id="paint0_linear_1_162" x1="0.361343" y1="35.0352" x2="48.0683" y2="6.68043" gradientUnits="userSpaceOnUse">
<stop stop-color="#E2FFFF"/>
<stop offset="1" stop-color="white"/>
</linearGradient>
<clipPath id="clip0_1_162">
<rect width="46" height="45.9999" fill="white"/>
</clipPath>
<clipPath id="clip1_1_162">
<rect width="46" height="45.9999" fill="white" transform="translate(-0.138794 -0.138428)"/>
</clipPath>
</defs>
</svg>
