<svg width="24" height="24" viewBox="0 0 24 24" fill="none" xmlns="http://www.w3.org/2000/svg">
<path fill-rule="evenodd" clip-rule="evenodd" d="M12.4301 0.885576L12 1.5L11.5699 0.885576C11.8281 0.704808 12.1719 0.704808 12.4301 0.885576ZM12 2.4375C11.8172 2.5801 11.5837 2.7679 11.3139 2.99724C10.6316 3.57714 9.72283 4.41798 8.81595 5.46088C6.98389 7.56776 5.25 10.395 5.25 13.5C5.25 15.2902 5.96116 17.0071 7.22703 18.273C8.4929 19.5388 10.2098 20.25 12 20.25C13.7902 20.25 15.5071 19.5388 16.773 18.273C18.0388 17.0071 18.75 15.2902 18.75 13.5C18.75 10.395 17.0161 7.56776 15.184 5.46088C14.2772 4.41798 13.3684 3.57714 12.6861 2.99724C12.4163 2.7679 12.1828 2.5801 12 2.4375ZM11.5695 0.88589C11.5697 0.885723 11.5699 0.885576 12 1.5C12.4301 0.885576 12.4303 0.885723 12.4305 0.88589L12.4312 0.886326L12.4329 0.887558L12.4385 0.891469L12.4575 0.905033C12.4737 0.916613 12.4969 0.933255 12.5264 0.954843C12.5856 0.998014 12.6706 1.061 12.7777 1.14288C12.9919 1.30659 13.2951 1.54618 13.6576 1.85433C14.3816 2.46974 15.3478 3.36327 16.316 4.47662C18.2339 6.68224 20.25 9.85496 20.25 13.5C20.25 15.688 19.3808 17.7865 17.8336 19.3336C16.2865 20.8808 14.188 21.75 12 21.75C9.81196 21.75 7.71354 20.8808 6.16637 19.3336C4.61919 17.7865 3.75 15.688 3.75 13.5C3.75 9.85496 5.76611 6.68224 7.68405 4.47662C8.65217 3.36327 9.61838 2.46974 10.3424 1.85433C10.7049 1.54618 11.0081 1.30659 11.2223 1.14288C11.3294 1.061 11.4144 0.998014 11.4736 0.954843C11.5031 0.933255 11.5263 0.916613 11.5425 0.905033L11.5615 0.891469L11.5671 0.887558L11.5688 0.886326L11.5695 0.88589Z" fill="white"/>
<path fill-rule="evenodd" clip-rule="evenodd" d="M16.5616 13.5203C16.9698 13.5905 17.2438 13.9784 17.1735 14.3866C16.9895 15.4559 16.478 16.4417 15.7098 17.208C14.9416 17.9742 13.9545 18.4831 12.8847 18.6645C12.4764 18.7337 12.0892 18.4588 12.0199 18.0504C11.9507 17.642 12.2257 17.2548 12.634 17.1856C13.3976 17.0561 14.1022 16.6929 14.6505 16.146C15.1988 15.599 15.5639 14.8954 15.6953 14.1322C15.7655 13.724 16.1534 13.45 16.5616 13.5203Z" fill="white"/>
</svg>
