<svg width="24" height="24" viewBox="0 0 24 24" fill="none" xmlns="http://www.w3.org/2000/svg">
<path fill-rule="evenodd" clip-rule="evenodd" d="M7.68984 3.10441C8.07226 2.94524 8.51129 3.12622 8.67046 3.50863L9.39234 5.24301C9.5515 5.62542 9.37053 6.06446 8.98811 6.22362C8.6057 6.38279 8.16666 6.20181 8.0075 5.8194L7.28562 4.08502C7.12646 3.70261 7.30743 3.26357 7.68984 3.10441Z" fill="white"/>
<path fill-rule="evenodd" clip-rule="evenodd" d="M1.60441 9.18991C1.76357 8.80749 2.20261 8.62652 2.58502 8.78568L4.3194 9.50756C4.70181 9.66673 4.88279 10.1058 4.72362 10.4882C4.56446 10.8706 4.12542 11.0516 3.74301 10.8924L2.00863 10.1705C1.62622 10.0114 1.44524 9.57232 1.60441 9.18991Z" fill="white"/>
<path fill-rule="evenodd" clip-rule="evenodd" d="M22.3955 9.18991C22.5547 9.57232 22.3737 10.0114 21.9913 10.1705L20.2569 10.8924C19.8745 11.0516 19.4354 10.8706 19.2763 10.4882C19.1171 10.1058 19.2981 9.66673 19.6805 9.50756L21.4149 8.78568C21.7973 8.62652 22.2363 8.80749 22.3955 9.18991Z" fill="white"/>
<path fill-rule="evenodd" clip-rule="evenodd" d="M16.3101 3.10441C16.6925 3.26357 16.8735 3.70261 16.7144 4.08502L15.9925 5.8194C15.8333 6.20181 15.3943 6.38279 15.0119 6.22362C14.6295 6.06446 14.4485 5.62542 14.6076 5.24301L15.3295 3.50863C15.4887 3.12622 15.9277 2.94524 16.3101 3.10441Z" fill="white"/>
<path fill-rule="evenodd" clip-rule="evenodd" d="M0.75 15C0.75 14.5858 1.08579 14.25 1.5 14.25H22.5C22.9142 14.25 23.25 14.5858 23.25 15C23.25 15.4142 22.9142 15.75 22.5 15.75H1.5C1.08579 15.75 0.75 15.4142 0.75 15Z" fill="white"/>
<path fill-rule="evenodd" clip-rule="evenodd" d="M3.74994 18.75C3.74994 18.3358 4.08573 18 4.49994 18H19.5C19.9142 18 20.25 18.3358 20.25 18.75C20.25 19.1642 19.9142 19.5 19.5 19.5H4.49994C4.08573 19.5 3.74994 19.1642 3.74994 18.75Z" fill="white"/>
<path fill-rule="evenodd" clip-rule="evenodd" d="M12.0001 8.61573C11.2483 8.61573 10.5066 8.78961 9.83316 9.12379C9.1597 9.45796 8.57266 9.94337 8.11792 10.5421C7.66318 11.1408 7.35308 11.8365 7.21185 12.575C7.07062 13.3134 7.1021 14.0745 7.30381 14.7987C7.41495 15.1978 7.18157 15.6113 6.78254 15.7225C6.38352 15.8336 5.96995 15.6002 5.85881 15.2012C5.59503 14.2541 5.55387 13.2588 5.73855 12.2932C5.92323 11.3275 6.32875 10.4177 6.92341 9.63479C7.51807 8.85188 8.28574 8.21711 9.16642 7.78011C10.0471 7.34311 11.0169 7.11572 12.0001 7.11572C12.9832 7.11572 13.953 7.34311 14.8337 7.78011C15.7144 8.21711 16.4821 8.85188 17.0767 9.63479C17.6714 10.4177 18.0769 11.3275 18.2616 12.2932C18.4463 13.2588 18.4051 14.2541 18.1413 15.2012C18.0302 15.6002 17.6166 15.8336 17.2176 15.7225C16.8186 15.6113 16.5852 15.1978 16.6963 14.7987C16.898 14.0745 16.9295 13.3134 16.7883 12.575C16.6471 11.8365 16.337 11.1408 15.8822 10.5421C15.4275 9.94337 14.8404 9.45796 14.167 9.12379C13.4935 8.78961 12.7519 8.61573 12.0001 8.61573Z" fill="white"/>
</svg>
