<svg width="24" height="24" viewBox="0 0 24 24" fill="none" xmlns="http://www.w3.org/2000/svg">
<path d="M19.5 21H15C14.6022 21 14.2206 20.8419 13.9393 20.5606C13.658 20.2793 13.5 19.8978 13.5 19.5V15H10.5V19.5C10.5 19.8978 10.342 20.2793 10.0607 20.5606C9.77936 20.8419 9.39782 21 9 21H4.5C4.10218 21 3.72064 20.8419 3.43934 20.5606C3.15804 20.2793 3 19.8978 3 19.5V10.8281C3.00007 10.62 3.04344 10.4141 3.12737 10.2237C3.2113 10.0332 3.33394 9.86232 3.4875 9.72184L10.9875 2.90621C11.264 2.65324 11.6252 2.51294 12 2.51294C12.3748 2.51294 12.736 2.65324 13.0125 2.90621L20.5125 9.72184C20.6661 9.86232 20.7887 10.0332 20.8726 10.2237C20.9566 10.4141 20.9999 10.62 21 10.8281V19.5C21 19.8978 20.842 20.2793 20.5607 20.5606C20.2794 20.8419 19.8978 21 19.5 21ZM10.5 13.5H13.5C13.8978 13.5 14.2794 13.658 14.5607 13.9393C14.842 14.2206 15 14.6021 15 15V19.5H19.5V10.8281L12 4.01246L4.5 10.8281V19.5H9V15C9 14.6021 9.15804 14.2206 9.43934 13.9393C9.72064 13.658 10.1022 13.5 10.5 13.5Z" fill="white"/>
</svg>
