<svg width="24" height="24" viewBox="0 0 24 24" fill="none" xmlns="http://www.w3.org/2000/svg">
<path fill-rule="evenodd" clip-rule="evenodd" d="M14.2497 14.25C14.798 14.2496 15.3359 14.3995 15.805 14.6834C16.2742 14.9673 16.6566 15.3744 16.9106 15.8605C17.1646 16.3465 17.2805 16.8929 17.2458 17.4402C17.211 17.9875 17.0269 18.5148 16.7134 18.9648C16.4 19.4147 15.9691 19.7702 15.4678 19.9925C14.9665 20.2148 14.4138 20.2954 13.8699 20.2256C13.3259 20.1558 12.8115 19.9382 12.3826 19.5965C11.9536 19.2548 11.6266 18.8021 11.4369 18.2875C11.2937 17.8988 11.4926 17.4677 11.8812 17.3244C12.2699 17.1812 12.7011 17.3801 12.8443 17.7688C12.9392 18.026 13.1027 18.2524 13.3172 18.4232C13.5317 18.5941 13.7889 18.7029 14.0608 18.7378C14.3328 18.7727 14.6091 18.7324 14.8598 18.6212C15.1105 18.5101 15.3259 18.3324 15.4826 18.1074C15.6393 17.8824 15.7314 17.6187 15.7488 17.3451C15.7662 17.0714 15.7082 16.7982 15.5812 16.5552C15.4542 16.3122 15.263 16.1087 15.0284 15.9667C14.7938 15.8247 14.5248 15.7498 14.2506 15.75L3.75 15.75C3.33579 15.75 3 15.4142 3 15C3 14.5858 3.33579 14.25 3.75 14.25H14.2497Z" fill="white"/>
<path fill-rule="evenodd" clip-rule="evenodd" d="M11.8598 5.37875C11.6091 5.26761 11.3328 5.2273 11.0608 5.26221C10.7889 5.29711 10.5317 5.40591 10.3172 5.57675C10.1027 5.7476 9.93917 5.97397 9.84435 6.23125C9.7011 6.61991 9.2699 6.81885 8.88125 6.6756C8.49259 6.53235 8.29365 6.10116 8.4369 5.7125C8.62656 5.19793 8.95364 4.7452 9.38258 4.4035C9.81152 4.06181 10.3259 3.84423 10.8699 3.77441C11.4138 3.7046 11.9665 3.78521 12.4678 4.00751C12.9691 4.2298 13.4 4.58526 13.7134 5.03525C14.0269 5.48524 14.211 6.01254 14.2458 6.55984C14.2805 7.10714 14.1646 7.6535 13.9106 8.13954C13.6566 8.62557 13.2742 9.03268 12.805 9.31661C12.336 9.60044 11.7982 9.75033 11.25 9.75H2.25C1.83579 9.75 1.5 9.41421 1.5 9C1.5 8.58579 1.83579 8.25 2.25 8.25H11.25C11.5242 8.25022 11.7938 8.17527 12.0284 8.03331C12.263 7.89134 12.4542 7.68779 12.5812 7.44477C12.7082 7.20175 12.7662 6.92857 12.7488 6.65492C12.7314 6.38127 12.6393 6.11762 12.4826 5.89262C12.3259 5.66763 12.1105 5.4899 11.8598 5.37875Z" fill="white"/>
<path fill-rule="evenodd" clip-rule="evenodd" d="M20.1098 8.37875C19.8591 8.26761 19.5828 8.2273 19.3108 8.26221C19.0389 8.29711 18.7817 8.40591 18.5672 8.57675C18.3527 8.7476 18.1892 8.97397 18.0943 9.23125C17.9511 9.61991 17.5199 9.81885 17.1313 9.6756C16.7426 9.53235 16.5437 9.10116 16.6869 8.7125C16.8766 8.19793 17.2036 7.7452 17.6326 7.4035C18.0615 7.06181 18.5759 6.84423 19.1199 6.77441C19.6638 6.7046 20.2165 6.78521 20.7178 7.00751C21.2191 7.2298 21.65 7.58526 21.9634 8.03525C22.2769 8.48524 22.461 9.01254 22.4958 9.55984C22.5305 10.1071 22.4146 10.6535 22.1606 11.1395C21.9066 11.6256 21.5242 12.0327 21.055 12.3166C20.586 12.6005 20.0481 12.7503 19.4999 12.75C19.4997 12.75 19.5001 12.75 19.4999 12.75H3C2.58579 12.75 2.25 12.4142 2.25 12C2.25 11.5858 2.58579 11.25 3 11.25H19.5C19.7742 11.2502 20.0438 11.1753 20.2784 11.0333C20.513 10.8913 20.7042 10.6878 20.8312 10.4448C20.9582 10.2018 21.0162 9.92857 20.9988 9.65492C20.9814 9.38127 20.8893 9.11762 20.7326 8.89262C20.5759 8.66763 20.3605 8.4899 20.1098 8.37875Z" fill="white"/>
</svg>
