<svg width="24" height="24" viewBox="0 0 24 24" fill="none" xmlns="http://www.w3.org/2000/svg">
<path fill-rule="evenodd" clip-rule="evenodd" d="M19.875 6.375C19.2537 6.375 18.75 6.87868 18.75 7.5C18.75 8.12133 19.2537 8.62501 19.875 8.62501C20.4963 8.62501 21 8.12133 21 7.5C21 6.87868 20.4963 6.375 19.875 6.375ZM17.25 7.5C17.25 6.05025 18.4253 4.875 19.875 4.875C21.3248 4.875 22.5 6.05025 22.5 7.5C22.5 8.94975 21.3248 10.125 19.875 10.125C18.4253 10.125 17.25 8.94975 17.25 7.5Z" fill="white"/>
<path fill-rule="evenodd" clip-rule="evenodd" d="M11.25 2.25C10.6533 2.25 10.081 2.48706 9.65902 2.90901C9.23706 3.33097 9.00001 3.90327 9.00001 4.50001V13.7813H8.25L8.71154 14.3724C8.0345 14.901 7.53935 15.6278 7.29518 16.4513C7.05101 17.2748 7.07 18.154 7.3495 18.9662C7.629 19.7784 8.15507 20.483 8.85431 20.9819C9.55355 21.4808 10.3911 21.7489 11.25 21.7489C12.109 21.7489 12.9465 21.4808 13.6457 20.9819C14.3449 20.483 14.871 19.7784 15.1505 18.9662C15.43 18.154 15.449 17.2748 15.2048 16.4513C14.9607 15.6278 14.4655 14.901 13.7885 14.3724C13.6064 14.2303 13.5 14.0122 13.5 13.7813V4.50001C13.5 3.90327 13.263 3.33097 12.841 2.90901C12.419 2.48706 11.8467 2.25 11.25 2.25ZM7.5 13.4312V4.50001C7.5 3.50544 7.89509 2.55161 8.59835 1.84835C9.30162 1.14509 10.2554 0.75 11.25 0.75C12.2446 0.75 13.1984 1.14509 13.9017 1.84835C14.6049 2.55161 15 3.50544 15 4.50001V13.4312C15.7757 14.125 16.3457 15.0224 16.643 16.0249C16.9759 17.1478 16.95 18.3467 16.5689 19.4543C16.1877 20.5618 15.4704 21.5227 14.5169 22.203C13.5634 22.8833 12.4213 23.2489 11.25 23.2489C10.0787 23.2489 8.93665 22.8833 7.98315 22.203C7.02964 21.5227 6.31228 20.5618 5.93114 19.4543C5.55 18.3467 5.5241 17.1478 5.85706 16.0249C6.1543 15.0224 6.72429 14.125 7.5 13.4312Z" fill="white"/>
<path fill-rule="evenodd" clip-rule="evenodd" d="M11.2501 16.5C10.6287 16.5 10.1251 17.0037 10.1251 17.625C10.1251 18.2463 10.6287 18.75 11.2501 18.75C11.8714 18.75 12.3751 18.2463 12.3751 17.625C12.3751 17.0037 11.8714 16.5 11.2501 16.5ZM8.62506 17.625C8.62506 16.1753 9.80032 15 11.2501 15C12.6998 15 13.8751 16.1753 13.8751 17.625C13.8751 19.0748 12.6998 20.25 11.2501 20.25C9.80032 20.25 8.62506 19.0748 8.62506 17.625Z" fill="white"/>
<path fill-rule="evenodd" clip-rule="evenodd" d="M11.3484 7.56555C11.7662 7.56555 12.1049 7.90427 12.1049 8.32211V15.8877C12.1049 16.3055 11.7662 16.6442 11.3484 16.6442C10.9305 16.6442 10.5918 16.3055 10.5918 15.8877V8.32211C10.5918 7.90427 10.9305 7.56555 11.3484 7.56555Z" fill="white"/>
</svg>
