<svg width="46" height="46" viewBox="0 0 46 46" fill="none" xmlns="http://www.w3.org/2000/svg">
<g clip-path="url(#clip0_1_173)">
<g clip-path="url(#clip1_1_173)">
<g filter="url(#filter0_f_1_173)">
<rect x="11.1311" y="26.5414" width="24.38" height="3.44999" rx="1.725" fill="#00BCFF"/>
</g>
<g filter="url(#filter1_bi_1_173)">
<path d="M40.6658 16.5341C40.7807 15.8814 40.8407 15.2101 40.8407 14.5249C40.8407 8.1147 35.5957 2.91821 29.1258 2.91821C24.3159 2.91821 20.1831 5.79014 18.3789 9.89762C16.9173 8.64736 15.0207 7.8925 12.9481 7.8925C8.32674 7.8925 4.58036 11.6455 4.58036 16.2751C4.58036 16.5329 4.59198 16.788 4.61472 17.0398C2.39191 18.1185 0.861355 20.382 0.861355 22.9996C0.861355 26.6626 3.85846 29.632 7.55557 29.632H39.1671C42.8642 29.632 45.8613 26.6626 45.8613 22.9996C45.8613 19.8471 43.6414 17.2083 40.6658 16.5341Z" fill="url(#paint0_linear_1_173)"/>
</g>
<g filter="url(#filter2_i_1_173)">
<path d="M22.7187 36.4827C21.0058 38.7296 18.6078 43.2234 22.7187 43.2234C26.8296 43.2234 24.4316 38.7296 22.7187 36.4827Z" fill="#00BCFF"/>
</g>
<path d="M32.5889 39.6536V38.8783L32.1785 39.1218L31.9777 38.9954V38.723L32.5889 38.358V37.8485L32.0999 38.1481V37.6083L31.611 37.8642V38.5965L31.4089 38.7468L31.2443 38.611V38.1206L30.5629 38.5022L30.2664 38.3801V38.071L30.9613 37.6835L30.5108 37.4607V37.1772L30.7703 37.0394L31.4077 37.4144L31.8492 37.1597L31.8392 37.1517L31.3912 36.8922L31.8273 36.6199L31.3901 36.3652L30.7529 36.7383L30.5108 36.6199V36.3379L30.9438 36.0961L30.2664 35.7229V35.4138L30.5501 35.2776L31.2443 35.6684V35.1701L31.4258 35.0324L31.6633 35.1766L31.6564 35.9229L32.1054 36.1823L32.1095 35.6553L32.5889 35.9119V35.4025L31.9777 35.0373V34.7666L32.1785 34.6383L32.5889 34.8818V34.1083L32.8326 33.9464L33.0778 34.1083V34.8818L33.5553 34.6335L33.8113 34.7825V35.026L33.0778 35.4025V35.9119L33.5668 35.6348V36.189L34.0557 35.9342V35.1368L34.2336 35.0309L34.4224 35.1366V35.646L35.1366 35.2695L35.4003 35.4184V35.7068L34.7287 36.0942L35.1559 36.3331V36.6086L34.9322 36.7304L34.281 36.3443L33.8313 36.6311L34.2651 36.9035L33.8179 37.1628L34.2789 37.4063L34.9377 37.0413L35.1559 37.19V37.4528L34.75 37.6835L35.4003 38.071V38.3753L35.0921 38.5021L34.4224 38.1368V38.6203L34.2366 38.7485L34.0557 38.6203V37.8866L33.5668 37.6161V38.1256L33.0778 37.8484V38.3578L33.689 38.7228V39.0112L33.4877 39.1217L33.0778 38.8785V39.6537L32.8326 39.8138L32.5889 39.6536ZM32.4097 36.8914L32.6402 37.2468H33.0698L33.2669 36.8914L33.0586 36.5134H32.6291L32.4097 36.8914Z" fill="#9FE8FF"/>
<path d="M12.4709 39.3171V38.5011L12.039 38.7574L11.8276 38.6243V38.3375L12.4709 37.9533V37.417L11.9563 37.7324V37.1642L11.4416 37.4336V38.2044L11.2289 38.3626L11.0556 38.2197V37.7034L10.3383 38.1051L10.0262 37.9766V37.6512L10.7577 37.2433L10.2835 37.0089V36.7103L10.5567 36.5653L11.2276 36.9601L11.6924 36.6919L11.6818 36.6836L11.2102 36.4104L11.6693 36.1237L11.2091 35.8557L10.5383 36.2484L10.2835 36.1237V35.8269L10.7393 35.5724L10.0262 35.1795V34.8541L10.3248 34.7108L11.0556 35.1222V34.5977L11.2466 34.4527L11.4966 34.6045L11.4894 35.3901L11.962 35.6631L11.9663 35.1084L12.4709 35.3785V34.8423L11.8276 34.4578V34.173L12.039 34.0378L12.4709 34.2942V33.4799L12.7275 33.3096L12.9856 33.4799V34.2942L13.4882 34.0328L13.7577 34.1897V34.446L12.9856 34.8423V35.3785L13.5003 35.0868V35.6702L14.015 35.402V34.5626L14.2022 34.4511L14.401 34.5624V35.0986L15.1527 34.7023L15.4304 34.859V35.1626L14.7233 35.5705L15.173 35.8219V36.1119L14.9376 36.2401L14.2521 35.8337L13.7788 36.1356L14.2354 36.4223L13.7646 36.6953L14.25 36.9516L14.9434 36.5674L15.173 36.7239V37.0005L14.7459 37.2433L15.4304 37.6512V37.9716L15.1059 38.105L14.401 37.7205V38.2294L14.2054 38.3644L14.015 38.2294V37.4572L13.5003 37.1724V37.7087L12.9856 37.4169V37.9532L13.629 38.3374V38.6409L13.4171 38.7573L12.9856 38.5012V39.3172L12.7275 39.4858L12.4709 39.3171ZM12.2823 36.4095L12.525 36.7837H12.9771L13.1847 36.4095L12.9654 36.0117H12.5133L12.2823 36.4095Z" fill="#9FE8FF"/>
</g>
</g>
<defs>
<filter id="filter0_f_1_173" x="-6.65554" y="8.75474" width="59.9533" height="39.0232" filterUnits="userSpaceOnUse" color-interpolation-filters="sRGB">
<feFlood flood-opacity="0" result="BackgroundImageFix"/>
<feBlend mode="normal" in="SourceGraphic" in2="BackgroundImageFix" result="shape"/>
<feGaussianBlur stdDeviation="8.89332" result="effect1_foregroundBlur_1_173"/>
</filter>
<filter id="filter1_bi_1_173" x="-7.13867" y="-5.08179" width="61" height="42.7137" filterUnits="userSpaceOnUse" color-interpolation-filters="sRGB">
<feFlood flood-opacity="0" result="BackgroundImageFix"/>
<feGaussianBlur in="BackgroundImageFix" stdDeviation="4"/>
<feComposite in2="SourceAlpha" operator="in" result="effect1_backgroundBlur_1_173"/>
<feBlend mode="normal" in="SourceGraphic" in2="effect1_backgroundBlur_1_173" result="shape"/>
<feColorMatrix in="SourceAlpha" type="matrix" values="0 0 0 0 0 0 0 0 0 0 0 0 0 0 0 0 0 0 127 0" result="hardAlpha"/>
<feOffset dy="4.79112"/>
<feGaussianBlur stdDeviation="2.17778"/>
<feComposite in2="hardAlpha" operator="arithmetic" k2="-1" k3="1"/>
<feColorMatrix type="matrix" values="0 0 0 0 1 0 0 0 0 1 0 0 0 0 1 0 0 0 1 0"/>
<feBlend mode="normal" in2="shape" result="effect2_innerShadow_1_173"/>
</filter>
<filter id="filter2_i_1_173" x="20.4489" y="36.4827" width="4.53967" height="8.09615" filterUnits="userSpaceOnUse" color-interpolation-filters="sRGB">
<feFlood flood-opacity="0" result="BackgroundImageFix"/>
<feBlend mode="normal" in="SourceGraphic" in2="BackgroundImageFix" result="shape"/>
<feColorMatrix in="SourceAlpha" type="matrix" values="0 0 0 0 0 0 0 0 0 0 0 0 0 0 0 0 0 0 127 0" result="hardAlpha"/>
<feOffset dy="4.06629"/>
<feGaussianBlur stdDeviation="0.677715"/>
<feComposite in2="hardAlpha" operator="arithmetic" k2="-1" k3="1"/>
<feColorMatrix type="matrix" values="0 0 0 0 1 0 0 0 0 1 0 0 0 0 1 0 0 0 0.21 0"/>
<feBlend mode="normal" in2="shape" result="effect1_innerShadow_1_173"/>
</filter>
<linearGradient id="paint0_linear_1_173" x1="0.861347" y1="29.6665" x2="51.211" y2="2.91821" gradientUnits="userSpaceOnUse">
<stop stop-color="#E2FFFF"/>
<stop offset="1" stop-color="white"/>
</linearGradient>
<clipPath id="clip0_1_173">
<rect width="46" height="45.9999" fill="white"/>
</clipPath>
<clipPath id="clip1_1_173">
<rect width="46" height="45.9999" fill="white" transform="translate(-0.138672 -0.13855)"/>
</clipPath>
</defs>
</svg>
