<svg width="46" height="46" viewBox="0 0 46 46" fill="none" xmlns="http://www.w3.org/2000/svg">
<g clip-path="url(#clip0_1_180)">
<g clip-path="url(#clip1_1_180)">
<g filter="url(#filter0_f_1_180)">
<rect x="10.6713" y="26.3115" width="24.38" height="3.44999" rx="1.725" fill="#00BCFF"/>
</g>
<g filter="url(#filter1_bi_1_180)">
<path d="M40.1659 16.3042C40.2809 15.6516 40.3408 14.9803 40.3408 14.295C40.3408 7.88485 35.0959 2.68835 28.6259 2.68835C23.8161 2.68835 19.6832 5.56028 17.879 9.66777C16.4174 8.41752 14.5208 7.66265 12.4482 7.66265C7.82684 7.66265 4.08046 11.4157 4.08046 16.0453C4.08046 16.3031 4.09208 16.5581 4.11481 16.81C1.89201 17.8887 0.36145 20.1522 0.36145 22.7698C0.36145 26.4328 3.35855 29.4022 7.05566 29.4022H38.6672C42.3643 29.4022 45.3615 26.4328 45.3615 22.7698C45.3615 19.6173 43.1415 16.9785 40.1659 16.3042Z" fill="url(#paint0_linear_1_180)"/>
</g>
<path d="M11.0365 37.4935V36.7183L10.6262 36.9618L10.4253 36.8354V36.5629L11.0365 36.1979V35.6884L10.5476 35.988V35.4482L10.0586 35.7042V36.4364L9.85655 36.5868L9.69189 36.451V35.9605L9.01054 36.3422L8.71399 36.2201V35.9109L9.40891 35.5234L8.95847 35.3007V35.0171L9.21798 34.8794L9.85532 35.2544L10.2968 34.9996L10.2868 34.9917L9.83882 34.7322L10.275 34.4598L9.83772 34.2052L9.2005 34.5783L8.95847 34.4598V34.1778L9.39143 33.936L8.71399 33.5629V33.2537L8.9977 33.1175L9.69189 33.5083V33.0101L9.87342 32.8723L10.1109 33.0166L10.1041 33.7628L10.5531 34.0222L10.5571 33.4953L11.0365 33.7518V33.2425L10.4253 32.8772V32.6066L10.6262 32.4782L11.0365 32.7217V31.9482L11.2803 31.7864L11.5255 31.9482V32.7217L12.0029 32.4735L12.2589 32.6225V32.866L11.5255 33.2425V33.7518L12.0144 33.4747V34.0289L12.5034 33.7742V32.9767L12.6812 32.8709L12.8701 32.9766V33.486L13.5842 33.1095L13.848 33.2584V33.5467L13.1763 33.9342L13.6035 34.1731V34.4486L13.3798 34.5703L12.7286 34.1843L12.2789 34.4711L12.7128 34.7434L12.2655 35.0028L12.7266 35.2463L13.3853 34.8813L13.6035 35.03V35.2928L13.1977 35.5234L13.848 35.9109V36.2153L13.5397 36.342L12.8701 35.9768V36.4603L12.6843 36.5885L12.5034 36.4603V35.7266L12.0144 35.4561V35.9656L11.5255 35.6883V36.1978L12.1366 36.5628V36.8512L11.9353 36.9617L11.5255 36.7184V37.4936L11.2803 37.6538L11.0365 37.4935ZM10.8573 34.7313L11.0878 35.0868H11.5174L11.7146 34.7313L11.5063 34.3534H11.0767L10.8573 34.7313Z" fill="#9FE8FF"/>
<path d="M22.3404 42.8284V41.6859L21.7357 42.0448L21.4397 41.8585V41.457L22.3404 40.9191V40.1683L21.6198 40.6098V39.8143L20.8993 40.1915V41.2705L20.6015 41.4921L20.3588 41.292V40.5693L19.3547 41.1316L18.9177 40.9517V40.4961L19.9418 39.9251L19.278 39.5969V39.1789L19.6604 38.9759L20.5997 39.5286L21.2504 39.1532L21.2356 39.1415L20.5754 38.759L21.2181 38.3577L20.5738 37.9824L19.6347 38.5322L19.278 38.3577V37.9421L19.9161 37.5858L18.9177 37.0358V36.5802L19.3358 36.3796L20.3588 36.9555V36.2212L20.6264 36.0182L20.9764 36.2308L20.9663 37.3305L21.6279 37.7128L21.6339 36.9362L22.3404 37.3143V36.5637L21.4397 36.0254V35.6266L21.7357 35.4374L22.3404 35.7963V34.6564L22.6996 34.4178L23.0609 34.6564V35.7963L23.7646 35.4304L24.1418 35.65V36.0088L23.0609 36.5637V37.3143L23.7815 36.9059V37.7227L24.5021 37.3473V36.172L24.7642 36.016L25.0425 36.1719V36.9225L26.0949 36.3677L26.4836 36.5871V37.012L25.4937 37.5831L26.1233 37.9351V38.3411L25.7937 38.5205L24.8341 37.9516L24.1713 38.3743L24.8106 38.7756L24.1515 39.1579L24.831 39.5167L25.8018 38.9788L26.1233 39.1978V39.5851L25.5253 39.9251L26.4836 40.4961V40.9447L26.0293 41.1315L25.0425 40.5932V41.3057L24.7687 41.4946L24.5021 41.3057V40.2245L23.7815 39.8258V40.5766L23.0609 40.1681V40.9189L23.9616 41.4568V41.8817L23.665 42.0446L23.0609 41.6861V42.8286L22.6996 43.0645L22.3404 42.8284ZM22.0763 38.7578L22.416 39.2816H23.0491L23.3396 38.7578L23.0327 38.2008H22.3997L22.0763 38.7578Z" fill="#9FE8FF"/>
<path d="M33.9015 36.88V36.1863L33.5344 36.4042L33.3547 36.2911V36.0473L33.9015 35.7207V35.2649L33.464 35.5329V35.05L33.0266 35.279V35.9341L32.8458 36.0686L32.6985 35.9471V35.5083L32.0888 35.8498L31.8235 35.7405V35.4639L32.4453 35.1172L32.0422 34.918V34.6642L32.2744 34.541L32.8447 34.8765L33.2397 34.6486L33.2308 34.6415L32.8299 34.4093L33.2202 34.1656L32.8289 33.9378L32.2588 34.2716L32.0422 34.1656V33.9133L32.4296 33.6969L31.8235 33.363V33.0864L32.0773 32.9646L32.6985 33.3143V32.8685L32.8609 32.7452L33.0734 32.8743L33.0673 33.542L33.469 33.7741L33.4726 33.3026L33.9015 33.5321V33.0764L33.3547 32.7496V32.5074L33.5344 32.3926L33.9015 32.6105V31.9184L34.1196 31.7736L34.339 31.9184V32.6105L34.7662 32.3883L34.9952 32.5217V32.7395L34.339 33.0764V33.5321L34.7765 33.2842V33.7801L35.214 33.5521V32.8386L35.3731 32.7439L35.5421 32.8385V33.2942L36.181 32.9574L36.4171 33.0906V33.3486L35.8161 33.6953L36.1983 33.909V34.1555L35.9982 34.2645L35.4155 33.9191L35.0132 34.1757L35.4013 34.4193L35.0011 34.6514L35.4137 34.8693L36.0031 34.5427L36.1983 34.6757V34.9109L35.8352 35.1172L36.4171 35.4639V35.7363L36.1412 35.8497L35.5421 35.5229V35.9554L35.3758 36.0702L35.214 35.9554V35.299L34.7765 35.057V35.5128L34.339 35.2648V35.7206L34.8859 36.0472V36.3052L34.7057 36.4041L34.339 36.1864V36.8801L34.1196 37.0233L33.9015 36.88ZM33.7412 34.4085L33.9475 34.7266H34.3318L34.5082 34.4085L34.3218 34.0703H33.9375L33.7412 34.4085Z" fill="#9FE8FF"/>
</g>
</g>
<defs>
<filter id="filter0_f_1_180" x="-7.11538" y="8.52488" width="59.9533" height="39.0232" filterUnits="userSpaceOnUse" color-interpolation-filters="sRGB">
<feFlood flood-opacity="0" result="BackgroundImageFix"/>
<feBlend mode="normal" in="SourceGraphic" in2="BackgroundImageFix" result="shape"/>
<feGaussianBlur stdDeviation="8.89332" result="effect1_foregroundBlur_1_180"/>
</filter>
<filter id="filter1_bi_1_180" x="-7.63855" y="-5.31165" width="61" height="42.7139" filterUnits="userSpaceOnUse" color-interpolation-filters="sRGB">
<feFlood flood-opacity="0" result="BackgroundImageFix"/>
<feGaussianBlur in="BackgroundImageFix" stdDeviation="4"/>
<feComposite in2="SourceAlpha" operator="in" result="effect1_backgroundBlur_1_180"/>
<feBlend mode="normal" in="SourceGraphic" in2="effect1_backgroundBlur_1_180" result="shape"/>
<feColorMatrix in="SourceAlpha" type="matrix" values="0 0 0 0 0 0 0 0 0 0 0 0 0 0 0 0 0 0 127 0" result="hardAlpha"/>
<feOffset dy="4.79112"/>
<feGaussianBlur stdDeviation="2.17778"/>
<feComposite in2="hardAlpha" operator="arithmetic" k2="-1" k3="1"/>
<feColorMatrix type="matrix" values="0 0 0 0 1 0 0 0 0 1 0 0 0 0 1 0 0 0 1 0"/>
<feBlend mode="normal" in2="shape" result="effect2_innerShadow_1_180"/>
</filter>
<linearGradient id="paint0_linear_1_180" x1="0.361442" y1="29.4367" x2="50.7112" y2="2.68841" gradientUnits="userSpaceOnUse">
<stop stop-color="#E2FFFF"/>
<stop offset="1" stop-color="white"/>
</linearGradient>
<clipPath id="clip0_1_180">
<rect width="46" height="45.9999" fill="white"/>
</clipPath>
<clipPath id="clip1_1_180">
<rect width="46" height="45.9999" fill="white" transform="translate(-0.138794 -0.138428)"/>
</clipPath>
</defs>
</svg>
