<svg width="24" height="24" viewBox="0 0 24 24" fill="none" xmlns="http://www.w3.org/2000/svg">
<path d="M7.5 12C7.5 12.2967 7.41203 12.5867 7.24721 12.8334C7.08238 13.08 6.84811 13.2723 6.57403 13.3858C6.29994 13.4994 5.99834 13.5291 5.70737 13.4712C5.41639 13.4133 5.14912 13.2704 4.93934 13.0607C4.72956 12.8509 4.5867 12.5836 4.52882 12.2926C4.47094 12.0017 4.50065 11.7001 4.61418 11.426C4.72771 11.1519 4.91997 10.9176 5.16665 10.7528C5.41332 10.588 5.70333 10.5 6 10.5C6.39783 10.5 6.77936 10.658 7.06066 10.9393C7.34197 11.2206 7.5 11.6022 7.5 12ZM18 10.5C17.7033 10.5 17.4133 10.588 17.1666 10.7528C16.92 10.9176 16.7277 11.1519 16.6142 11.426C16.5007 11.7001 16.4709 12.0017 16.5288 12.2926C16.5867 12.5836 16.7296 12.8509 16.9393 13.0607C17.1491 13.2704 17.4164 13.4133 17.7074 13.4712C17.9983 13.5291 18.2999 13.4994 18.574 13.3858C18.8481 13.2723 19.0824 13.08 19.2472 12.8334C19.412 12.5867 19.5 12.2967 19.5 12C19.5 11.6022 19.342 11.2206 19.0607 10.9393C18.7794 10.658 18.3978 10.5 18 10.5ZM12 10.5C11.7033 10.5 11.4133 10.588 11.1666 10.7528C10.92 10.9176 10.7277 11.1519 10.6142 11.426C10.5006 11.7001 10.4709 12.0017 10.5288 12.2926C10.5867 12.5836 10.7296 12.8509 10.9393 13.0607C11.1491 13.2704 11.4164 13.4133 11.7074 13.4712C11.9983 13.5291 12.2999 13.4994 12.574 13.3858C12.8481 13.2723 13.0824 13.08 13.2472 12.8334C13.412 12.5867 13.5 12.2967 13.5 12C13.5 11.6022 13.342 11.2206 13.0607 10.9393C12.7794 10.658 12.3978 10.5 12 10.5Z" fill="white"/>
</svg>
