<svg width="18" height="18" viewBox="0 0 18 18" fill="none" xmlns="http://www.w3.org/2000/svg">
<path d="M16.9453 16.0547L13.5625 12.6797C14.7564 11.2583 15.3555 9.43081 15.2348 7.57844C15.114 5.72607 14.2828 3.99182 12.9146 2.73738C11.5463 1.48294 9.74649 0.805181 7.89063 0.845447C6.03477 0.885712 4.2661 1.6409 2.9535 2.9535C1.6409 4.2661 0.885712 6.03477 0.845447 7.89063C0.805181 9.74649 1.48294 11.5463 2.73738 12.9146C3.99182 14.2828 5.72607 15.114 7.57844 15.2348C9.43081 15.3555 11.2583 14.7564 12.6797 13.5625L16.0547 16.9453C16.1741 17.0608 16.3338 17.1254 16.5 17.1254C16.6662 17.1254 16.8258 17.0608 16.9453 16.9453C17.0627 16.8268 17.1285 16.6668 17.1285 16.5C17.1285 16.3332 17.0627 16.1732 16.9453 16.0547ZM2.125 8.0625C2.125 6.88817 2.47323 5.74022 3.12565 4.7638C3.77807 3.78738 4.70538 3.02636 5.79032 2.57696C6.87525 2.12757 8.06909 2.00999 9.22085 2.23909C10.3726 2.46819 11.4306 3.03368 12.2609 3.86405C13.0913 4.69443 13.6568 5.75239 13.8859 6.90415C14.115 8.05591 13.9974 9.24975 13.548 10.3347C13.0986 11.4196 12.3376 12.3469 11.3612 12.9993C10.3848 13.6518 9.23683 14 8.0625 14C6.48841 13.9979 4.97938 13.3717 3.86634 12.2587C2.75329 11.1456 2.12707 9.63659 2.125 8.0625Z" fill="white"/>
</svg>
