<svg width="46" height="46" viewBox="0 0 46 46" fill="none" xmlns="http://www.w3.org/2000/svg">
<g clip-path="url(#clip0_1_156)">
<g clip-path="url(#clip1_1_156)">
<g filter="url(#filter0_f_1_156)">
<rect x="10.6714" y="25.3915" width="24.38" height="3.44999" rx="1.725" fill="#00BCFF"/>
</g>
<g filter="url(#filter1_i_1_156)">
<path d="M17.9507 12.7011C18.0001 12.4164 18.0258 12.1236 18.0258 11.8246C18.0258 9.02833 15.774 6.76147 12.9962 6.76147C10.9312 6.76147 9.15683 8.01429 8.38224 9.80609C7.75472 9.2607 6.94045 8.9314 6.05061 8.9314C4.0665 8.9314 2.45805 10.5686 2.45805 12.5881C2.45805 12.7006 2.46304 12.8119 2.4728 12.9217C1.51848 13.3923 0.861361 14.3797 0.861361 15.5216C0.861361 17.1194 2.14812 18.4148 3.73541 18.4148H17.3073C18.8946 18.4148 20.1813 17.1194 20.1813 15.5216C20.1813 14.1463 19.2282 12.9952 17.9507 12.7011Z" fill="url(#paint0_linear_1_156)"/>
</g>
<g filter="url(#filter2_bi_1_156)">
<path d="M40.6567 20.4867C40.7718 19.9023 40.8319 19.3012 40.8319 18.6876C40.8319 12.9478 35.5776 8.2948 29.0962 8.2948C24.2778 8.2948 20.1376 10.8664 18.3302 14.5443C16.866 13.4248 14.966 12.7489 12.8898 12.7489C8.26016 12.7489 4.50713 16.1094 4.50713 20.2548C4.50713 20.4856 4.51876 20.714 4.54154 20.9395C2.31479 21.9054 0.781509 23.9322 0.781509 26.276C0.781509 29.5559 3.78394 32.2148 7.48762 32.2148H39.1553C42.859 32.2148 45.8615 29.5559 45.8615 26.276C45.8615 23.4532 43.6375 21.0904 40.6567 20.4867Z" fill="url(#paint1_linear_1_156)"/>
</g>
<g filter="url(#filter3_bi_1_156)">
<path d="M41.1302 32.3456C41.1874 32.016 41.2172 31.6769 41.2172 31.3308C41.2172 28.0929 38.608 25.4681 35.3893 25.4681C32.9965 25.4681 30.9405 26.9188 30.0429 28.9935C29.3158 28.362 28.3723 27.9807 27.3412 27.9807C25.0422 27.9807 23.1784 29.8764 23.1784 32.2148C23.1784 32.345 23.1842 32.4739 23.1955 32.6011C22.0897 33.1459 21.3283 34.2892 21.3283 35.6114C21.3283 37.4616 22.8193 38.9615 24.6585 38.9615H40.3847C42.2239 38.9615 43.7149 37.4616 43.7149 35.6114C43.7149 34.019 42.6105 32.6862 41.1302 32.3456Z" fill="url(#paint2_linear_1_156)"/>
</g>
</g>
</g>
<defs>
<filter id="filter0_f_1_156" x="-7.11526" y="7.60484" width="59.9533" height="39.0232" filterUnits="userSpaceOnUse" color-interpolation-filters="sRGB">
<feFlood flood-opacity="0" result="BackgroundImageFix"/>
<feBlend mode="normal" in="SourceGraphic" in2="BackgroundImageFix" result="shape"/>
<feGaussianBlur stdDeviation="8.89332" result="effect1_foregroundBlur_1_156"/>
</filter>
<filter id="filter1_i_1_156" x="0.861389" y="6.76147" width="19.3199" height="15.8979" filterUnits="userSpaceOnUse" color-interpolation-filters="sRGB">
<feFlood flood-opacity="0" result="BackgroundImageFix"/>
<feBlend mode="normal" in="SourceGraphic" in2="BackgroundImageFix" result="shape"/>
<feColorMatrix in="SourceAlpha" type="matrix" values="0 0 0 0 0 0 0 0 0 0 0 0 0 0 0 0 0 0 127 0" result="hardAlpha"/>
<feOffset dy="4.66902"/>
<feGaussianBlur stdDeviation="2.12228"/>
<feComposite in2="hardAlpha" operator="arithmetic" k2="-1" k3="1"/>
<feColorMatrix type="matrix" values="0 0 0 0 1 0 0 0 0 1 0 0 0 0 1 0 0 0 1 0"/>
<feBlend mode="normal" in2="shape" result="effect1_innerShadow_1_156"/>
</filter>
<filter id="filter2_bi_1_156" x="-7.21851" y="0.2948" width="61.08" height="39.9199" filterUnits="userSpaceOnUse" color-interpolation-filters="sRGB">
<feFlood flood-opacity="0" result="BackgroundImageFix"/>
<feGaussianBlur in="BackgroundImageFix" stdDeviation="4"/>
<feComposite in2="SourceAlpha" operator="in" result="effect1_backgroundBlur_1_156"/>
<feBlend mode="normal" in="SourceGraphic" in2="effect1_backgroundBlur_1_156" result="shape"/>
<feColorMatrix in="SourceAlpha" type="matrix" values="0 0 0 0 0 0 0 0 0 0 0 0 0 0 0 0 0 0 127 0" result="hardAlpha"/>
<feOffset dy="4.66902"/>
<feGaussianBlur stdDeviation="2.12228"/>
<feComposite in2="hardAlpha" operator="arithmetic" k2="-1" k3="1"/>
<feColorMatrix type="matrix" values="0 0 0 0 1 0 0 0 0 1 0 0 0 0 1 0 0 0 1 0"/>
<feBlend mode="normal" in2="shape" result="effect2_innerShadow_1_156"/>
</filter>
<filter id="filter3_bi_1_156" x="13.3282" y="17.4681" width="38.3867" height="29.4933" filterUnits="userSpaceOnUse" color-interpolation-filters="sRGB">
<feFlood flood-opacity="0" result="BackgroundImageFix"/>
<feGaussianBlur in="BackgroundImageFix" stdDeviation="4"/>
<feComposite in2="SourceAlpha" operator="in" result="effect1_backgroundBlur_1_156"/>
<feBlend mode="normal" in="SourceGraphic" in2="effect1_backgroundBlur_1_156" result="shape"/>
<feColorMatrix in="SourceAlpha" type="matrix" values="0 0 0 0 0 0 0 0 0 0 0 0 0 0 0 0 0 0 127 0" result="hardAlpha"/>
<feOffset dy="4.66902"/>
<feGaussianBlur stdDeviation="2.12228"/>
<feComposite in2="hardAlpha" operator="arithmetic" k2="-1" k3="1"/>
<feColorMatrix type="matrix" values="0 0 0 0 1 0 0 0 0 1 0 0 0 0 1 0 0 0 1 0"/>
<feBlend mode="normal" in2="shape" result="effect2_innerShadow_1_156"/>
</filter>
<linearGradient id="paint0_linear_1_156" x1="0.861357" y1="18.4298" x2="22.6284" y2="7.04889" gradientUnits="userSpaceOnUse">
<stop stop-color="#E2FFFF"/>
<stop offset="1" stop-color="white"/>
</linearGradient>
<linearGradient id="paint1_linear_1_156" x1="0.781501" y1="32.2457" x2="48.5732" y2="3.84049" gradientUnits="userSpaceOnUse">
<stop stop-color="#E2FFFF"/>
<stop offset="1" stop-color="white"/>
</linearGradient>
<linearGradient id="paint2_linear_1_156" x1="21.3283" y1="38.9789" x2="46.5426" y2="25.786" gradientUnits="userSpaceOnUse">
<stop stop-color="#E2FFFF"/>
<stop offset="1" stop-color="white"/>
</linearGradient>
<clipPath id="clip0_1_156">
<rect width="46" height="45.9999" fill="white"/>
</clipPath>
<clipPath id="clip1_1_156">
<rect width="46" height="45.9999" fill="white" transform="translate(-0.138672 -0.13855)"/>
</clipPath>
</defs>
</svg>
